<svg width="580" height="400" xmlns="http://www.w3.org/2000/svg">
 <!-- Created with Liveweave.com -->
 <g>
  <title>background</title>
  <rect fill="#fff" id="canvas_background" height="402" width="582" y="-1" x="-1"/>
  <g display="none" overflow="visible" y="0" x="0" height="100%" width="100%" id="canvasGrid">
   <rect fill="url(#gridpattern)" stroke-width="0" y="0" x="0" height="100%" width="100%"/>
  </g>
 </g>
 <g>
  <title>Layer 1</title>
  <path d="m144.5,210.4375c1,-1 0.881332,-5.025208 2,-10c0.904556,-4.022659 1,-8 1,-9c0,0 0,-1 0,-2c0,-1 1.2565,-2.796997 2,-4c1.662506,-2.689987 1.331985,-5.229355 3,-9c1.458633,-3.297333 4.288589,-5.868286 6,-10c1.210144,-2.92157 2.371338,-4.74675 5,-9c2.351135,-3.80423 3.648865,-6.19577 6,-10c2.628662,-4.25325 5.714127,-6.21167 8,-9c1.793198,-2.187347 3.450485,-4.450485 6,-7c2.549515,-2.549515 6,-6 10,-9c4,-3 8.222733,-5.723991 12,-9c3.205124,-2.779785 6.881516,-6.190277 10,-8c3.867996,-2.244682 8.087433,-4.793938 13,-7c6.119492,-2.748055 8.790253,-6.990242 16,-8c1.980667,-0.277405 3.022476,-0.633453 6,-1c4.092209,-0.503777 7,-1 9,-1c1,0 2,0 3,0c1,0 2,0 5,3c2,2 6.714111,5.211678 9,8c1.793182,2.18734 4.385101,5.372017 7,9c0.826904,1.14727 2.458801,2.693436 3,4c0.38269,0.923882 0,2 -3,2c-2,0 -2.823761,1.486259 -5,2c-1.946503,0.459503 -5.07843,1.789848 -8,3c-2.065857,0.855705 -4.918304,2.112137 -9,5c-8.830063,6.247406 -21.44043,12.589767 -27,19c-3.276016,3.777267 -5.906326,8.103409 -7,9c-2.78833,2.285873 -4.714127,6.21167 -7,9c-0.896591,1.093674 -1.714127,3.21167 -4,6c-1.793198,2.187347 -3.610641,6.159271 -5,9c-1.584106,3.238922 -3,5 -4,5c0,0 1.146805,0.863251 3,3c3.276016,3.777267 7.19577,6.648865 11,9c4.25325,2.628662 6,5 9,7c3,2 6,4 8,5c2,1 3.718994,4.310211 7,7c2.78833,2.285873 5.458801,3.693436 6,5c0.38269,0.923874 -1.74675,1.371338 -6,4c-11.412674,7.053421 -22.725479,7.30806 -29,11c-2.437744,1.434372 -6.06601,2.877655 -8,4c-3.118484,1.809723 -8.823746,3.486252 -11,4c-1.946503,0.459503 -5,1 -7,2c-4,2 -8.887314,3.376694 -15,5c-4.928207,1.308762 -10.041321,1.847229 -14,3c-3.036163,0.88414 -4,1 -5,1c0,0 -1,0 -3,-2c-2,-2 -4.186005,-3.692551 -6,-5c-2.29454,-1.653809 -3.173096,-3.852737 -4,-5c-1.307449,-1.813995 -2,-5 -2,-6c0,-2 0,-3 0,-4c0,-1 -0.765366,-2.152237 0,-4c0.541199,-1.306564 2,-1 2,-2c0,0 1.824432,0.902115 3,-1c0.525726,-0.850647 0.292892,-2.292892 1,-3c0.707108,-0.707108 1.486252,-0.823746 2,-3c0.229752,-0.973251 0,-2 0,-3c0,0 -1.292892,0.707108 -2,0c-0.707108,-0.707108 -1,-2 -2,-3l-1,0" id="svg_1" stroke-width="1.5" stroke="#000" fill="none"/>
 </g>
</svg>